<svg width="48" height="47" viewBox="0 0 48 47" fill="none" xmlns="http://www.w3.org/2000/svg">
<path d="M19.8197 8.18713C19.8197 5.42722 17.5363 3.18573 14.7249 3.18573C11.9135 3.18573 9.63013 5.43476 9.63013 8.18712C9.63013 10.9395 11.9135 13.1885 14.7249 13.1885C17.5363 13.1885 19.8197 10.947 19.8197 8.18713Z" fill="white"/>
<path d="M14.7255 0.659913C10.5025 0.659912 7.05737 4.04193 7.05737 8.18746C7.05737 12.333 10.4949 15.715 14.7255 15.715C18.9561 15.715 22.3935 12.333 22.3935 8.18746C22.3935 4.04193 18.9484 0.659913 14.7255 0.659913ZM9.63069 8.18746C9.63069 5.42754 11.914 3.18606 14.7255 3.18606C17.5369 3.18606 19.8202 5.42755 19.8202 8.18746C19.8202 10.9474 17.5369 13.1889 14.7255 13.1889C11.914 13.1889 9.63069 10.9474 9.63069 8.18746Z" fill="#195083"/>
<path d="M19.8172 32.735C19.8172 28.7535 21.5974 25.1773 24.4069 22.719C23.971 22.3213 23.4602 22.0215 22.9033 21.8198C21.8183 21.4522 20.7198 21.16 19.6425 20.9432L15.915 30.1353C15.4868 31.2005 13.9524 31.2005 13.5241 30.1353L9.79667 20.9281C8.71166 21.1449 7.61319 21.4371 6.53586 21.8047C5.29145 22.2251 4.33703 23.1696 3.83197 24.3309L7.98575 24.3309C8.6963 24.3309 9.27625 24.8926 9.27625 25.5977C9.27625 26.3028 8.70398 26.8645 7.98575 26.8645L3.42676 26.8645L3.42676 29.1136L5.49693 29.1136C6.20748 29.1136 6.78743 29.6754 6.78743 30.3804C6.78743 31.0855 6.21516 31.6473 5.49693 31.6473L3.42676 31.6473L3.42676 35.133L20.0381 35.133C19.9075 34.345 19.8172 33.5513 19.8172 32.7331L19.8172 32.735Z" fill="#57ABDE"/>
<path d="M34.6567 24.4114C34.7565 24.5905 34.818 24.8016 34.818 25.0184L34.818 32.7326C34.818 33.4301 34.2457 33.9994 33.5275 33.9994L29.2892 33.9994C28.5787 33.9994 28.0064 33.4376 28.0064 32.7326C28.0064 32.0275 28.5787 31.4733 29.2892 31.4733L32.237 31.4733L32.237 25.0184C32.237 24.7941 32.2985 24.5905 32.3983 24.4114C28.2138 24.9581 24.9741 28.4834 24.9741 32.7345C24.9741 37.3683 28.8091 41.1311 33.5275 41.1311C38.2459 41.1311 42.0809 37.3664 42.0809 32.7345C42.0809 28.4758 38.8431 24.9524 34.6567 24.4114Z" fill="#FDC114"/>
<path d="M33.5306 19.2758C30.9726 19.2758 28.5817 19.9808 26.5346 21.1873C25.7549 20.3918 24.8159 19.7998 23.7462 19.4322C22.1734 18.8931 20.5833 18.5104 19.0259 18.271C18.4306 18.1805 17.8506 18.5028 17.6279 19.0514L14.7262 26.2491L11.8168 19.0439C11.596 18.4972 11.0141 18.1748 10.4188 18.2634C8.83828 18.5028 7.25012 18.9006 5.69845 19.4247C2.80444 20.4219 0.857177 23.1442 0.857177 26.217L0.857176 36.3989C0.857176 37.0964 1.42944 37.6657 2.14767 37.6657L20.7907 37.6657C22.7995 42.652 27.7483 46.1905 33.5382 46.1905C41.0988 46.1905 47.2402 40.1466 47.2402 32.7397C47.2402 25.3329 41.0757 19.2739 33.5306 19.2739L33.5306 19.2758ZM20.0264 35.1264L3.41513 35.1264L3.41513 31.6407L5.50066 31.6407C6.2112 31.6407 6.79115 31.0789 6.79115 30.3738C6.79115 29.6688 6.21888 29.107 5.50066 29.107L3.43048 29.107L3.43048 26.858L7.98179 26.858C8.69233 26.858 9.27229 26.2962 9.27229 25.5911C9.27229 24.8861 8.70001 24.3243 7.98179 24.3243L3.83377 24.3243C4.34459 23.163 5.30094 22.2242 6.53767 21.7981C7.615 21.4305 8.7077 21.1383 9.79848 20.9215L13.5259 30.1288C13.9542 31.1939 15.4886 31.1939 15.9168 30.1288L19.6289 20.9215C20.7139 21.1383 21.8124 21.4305 22.8897 21.7981C23.4543 21.9923 23.9594 22.2996 24.3934 22.6974C21.5819 25.1632 19.8037 28.7413 19.8037 32.7133C19.796 33.5523 19.8882 34.3478 20.0245 35.1283L20.0264 35.1264ZM33.5306 43.6587L33.5229 43.6587C27.3892 43.6587 22.3943 38.7554 22.3943 32.7341C22.3943 26.7128 27.3892 21.8094 33.5229 21.8094L33.5382 21.8094C39.6719 21.8094 44.6669 26.7128 44.6668 32.7341C44.6592 38.7554 39.6643 43.6587 33.5306 43.6587Z" fill="#195083"/>
<path d="M33.5312 21.8091C39.6573 21.8091 44.6522 26.7124 44.6522 32.7337C44.6522 38.755 39.6573 43.6584 33.5312 43.6584L33.5389 43.6584C39.6726 43.6584 44.6675 38.755 44.6675 32.7337C44.6599 26.7124 39.665 21.8091 33.5312 21.8091Z" fill="#195083"/>
<path d="M33.5317 23.7512C32.8212 23.7512 32.2412 24.3129 32.2412 25.018L32.2412 31.4729L29.2934 31.4729C28.5829 31.4729 28.0029 32.0347 28.0029 32.7397C28.0029 33.4448 28.5752 34.0066 29.2934 34.0066L33.5317 34.0066C34.2423 34.0066 34.8222 33.4448 34.8222 32.7397L34.8222 25.018C34.8145 24.3205 34.2423 23.7512 33.5317 23.7512Z" fill="#195083"/>
</svg>
