<svg width="34" height="34" viewBox="0 0 34 34" fill="none" xmlns="http://www.w3.org/2000/svg">
<g clip-path="url(#clip0_1_1311)">
<path d="M33.0832 14.8339H1.18164L16.7517 0.786682L33.0832 14.8339Z" fill="#EDF2F8"/>
<path d="M33.0831 15.3589H1.18155C0.971494 15.3589 0.761443 15.2277 0.682673 15.0176C0.603904 14.8076 0.656417 14.5975 0.813955 14.44L16.384 0.39279C16.5678 0.208995 16.8829 0.208995 17.0667 0.39279L33.4244 14.44C33.582 14.5713 33.6607 14.8076 33.582 15.0176C33.5032 15.2277 33.2931 15.3589 33.0831 15.3589ZM2.54688 14.3087H31.6652L16.7516 1.49556L2.54688 14.3087Z" fill="#131313"/>
<path d="M14.415 7.50828C14.415 7.84277 14.4809 8.17398 14.6088 8.48302C14.7368 8.79205 14.9244 9.07285 15.1609 9.30938C15.3974 9.54591 15.6782 9.73353 15.9872 9.86155C16.2962 9.98956 16.6274 10.0554 16.9619 10.0554C17.2964 10.0554 17.6276 9.98956 17.9366 9.86155C18.2456 9.73353 18.5264 9.54591 18.7629 9.30938C18.9994 9.07285 19.187 8.79205 19.315 8.48302C19.443 8.17398 19.5088 7.84277 19.5088 7.50828C19.5088 7.1738 19.443 6.84258 19.315 6.53355C19.187 6.22451 18.9994 5.94371 18.7629 5.70718C18.5264 5.47065 18.2456 5.28303 17.9366 5.15502C17.6276 5.02701 17.2964 4.96112 16.9619 4.96112C16.6274 4.96112 16.2962 5.02701 15.9872 5.15502C15.6782 5.28303 15.3974 5.47065 15.1609 5.70718C14.9244 5.94371 14.7368 6.22451 14.6088 6.53355C14.4809 6.84258 14.415 7.1738 14.415 7.50828Z" fill="#C2CDDC"/>
<path d="M16.9616 10.554C15.2812 10.554 13.8896 9.1887 13.8896 7.48203C13.8896 5.77537 15.255 4.41003 16.9616 4.41003C18.6421 4.41003 20.0336 5.77537 20.0336 7.48203C20.0336 9.1887 18.6421 10.554 16.9616 10.554ZM16.9616 5.48655C15.8589 5.48655 14.9399 6.37926 14.9399 7.50829C14.9399 8.63732 15.8326 9.53003 16.9616 9.53003C18.0644 9.53003 18.9834 8.63732 18.9834 7.50829C18.9834 6.37926 18.0644 5.48655 16.9616 5.48655Z" fill="#131313"/>
<path d="M1.26057 14.8339H32.7158C33.1359 14.8339 33.4509 15.1752 33.4509 15.569V16.2517C33.4509 16.6718 33.1096 16.9869 32.7158 16.9869H1.26057C0.840468 16.9869 0.525391 16.6456 0.525391 16.2517V15.569C0.525391 15.1752 0.866724 14.8339 1.26057 14.8339Z" fill="white"/>
<path d="M32.7417 17.5382H1.26031C0.551385 17.5382 0 16.9606 0 16.2779V15.5953C0 14.8863 0.577641 14.335 1.26031 14.335H32.7155C33.4244 14.335 33.9758 14.9126 33.9758 15.5953V16.2779C34.0021 16.9606 33.4244 17.5382 32.7417 17.5382ZM1.26031 15.359C1.12903 15.359 1.05026 15.464 1.05026 15.569V16.2517C1.05026 16.383 1.15528 16.4617 1.26031 16.4617H32.7155C32.8468 16.4617 32.9255 16.3567 32.9255 16.2517V15.569C32.9255 15.4377 32.8205 15.359 32.7155 15.359H1.26031Z" fill="#131313"/>
<path d="M5.17285 16.9869H9.4789V18.2997C9.4789 18.7198 9.13757 19.0349 8.74372 19.0349H5.93429C5.51419 19.0349 5.19911 18.6935 5.19911 18.2997V16.9869H5.17285Z" fill="#C2CDDC"/>
<path d="M8.74357 19.5862H5.93414C5.22521 19.5862 4.67383 19.0086 4.67383 18.3259V17.0131C4.67383 16.7243 4.91014 16.488 5.19896 16.488H9.50501C9.79383 16.488 10.0301 16.7243 10.0301 17.0131V18.3259C10.0039 19.0086 9.45249 19.5862 8.74357 19.5862ZM5.69783 17.512V18.2997C5.69783 18.431 5.80285 18.5097 5.90788 18.5097H8.74357C8.87485 18.5097 8.95362 18.4047 8.95362 18.2997V17.512H5.69783Z" fill="#131313"/>
<path d="M5.93429 26.9643H8.76998C9.19008 26.9643 9.50516 27.3056 9.50516 27.6995V29.0123H5.17285V27.6995C5.17285 27.2794 5.51419 26.9643 5.93429 26.9643Z" fill="#C2CDDC"/>
<path d="M9.47864 29.5375H5.17259C4.88377 29.5375 4.64746 29.3012 4.64746 29.0123V27.6995C4.64746 26.9906 5.2251 26.4392 5.90777 26.4392H8.74346C9.45238 26.4392 10.0038 27.0169 10.0038 27.6995V29.0123C10.0038 29.3012 9.79372 29.5375 9.47864 29.5375ZM5.69772 28.4872H8.95351V27.6995C8.95351 27.5682 8.84849 27.4895 8.74346 27.4895H5.93403C5.80274 27.4895 5.72397 27.5945 5.72397 27.6995V28.4872H5.69772Z" fill="#131313"/>
<path d="M6.27539 19.0612H8.3759V26.9643H6.27539V19.0612Z" fill="#F3F3F3"/>
<path d="M8.37564 27.4894H6.27513C5.98631 27.4894 5.75 27.2531 5.75 26.9643V19.0611C5.75 18.7723 5.98631 18.536 6.27513 18.536H8.37564C8.66446 18.536 8.90077 18.7723 8.90077 19.0611V26.9643C8.90077 27.2531 8.66446 27.4894 8.37564 27.4894ZM6.80026 26.4392H7.85051V19.5863H6.80026V26.4392Z" fill="#131313"/>
<path d="M11.3955 16.9869H15.7016V18.2997C15.7016 18.7198 15.3602 19.0349 14.9664 19.0349H12.1307C11.7106 19.0349 11.3955 18.6935 11.3955 18.2997V16.9869Z" fill="#C2CDDC"/>
<path d="M14.9661 19.5862H12.1304C11.4215 19.5862 10.8701 19.0086 10.8701 18.3259V17.0656V17.0131C10.8701 16.7243 11.1064 16.488 11.3952 16.488H15.7013C15.9901 16.488 16.2264 16.7243 16.2264 17.0131V18.3259C16.2264 19.0086 15.6488 19.5862 14.9661 19.5862ZM11.9204 17.512V18.2997C11.9204 18.431 12.0254 18.5097 12.1304 18.5097H14.9661C15.0974 18.5097 15.1762 18.4047 15.1762 18.2997V17.512H11.9204Z" fill="#131313"/>
<path d="M12.1307 26.9643H14.9401C15.3602 26.9643 15.6753 27.3056 15.6753 27.6995V29.0123H11.3955V27.6995C11.3955 27.2794 11.7106 26.9643 12.1307 26.9643Z" fill="#C2CDDC"/>
<path d="M15.7013 29.5375H11.3952C11.1064 29.5375 10.8701 29.3012 10.8701 29.0123V27.6995C10.8701 26.9906 11.4478 26.4392 12.1304 26.4392H14.9661C15.675 26.4392 16.2264 27.0169 16.2264 27.6995V29.0123C16.2264 29.3012 15.9901 29.5375 15.7013 29.5375ZM11.9204 28.4872H15.1762V27.6995C15.1762 27.5682 15.0711 27.4895 14.9661 27.4895H12.1304C11.9991 27.4895 11.9204 27.5945 11.9204 27.6995V28.4872Z" fill="#131313"/>
<path d="M12.498 19.0612H14.5986V26.9643H12.498V19.0612Z" fill="#F3F3F3"/>
<path d="M14.5983 27.4894H12.4978C12.209 27.4894 11.9727 27.2531 11.9727 26.9643V19.0611C11.9727 18.7723 12.209 18.536 12.4978 18.536H14.5983C14.8871 18.536 15.1234 18.7723 15.1234 19.0611V26.9643C15.1234 27.2531 14.8871 27.4894 14.5983 27.4894ZM13.0229 26.4392H14.0732V19.5863H13.0229V26.4392Z" fill="#131313"/>
<path d="M17.8809 16.9869H22.1869V18.2997C22.1869 18.7198 21.8456 19.0349 21.4517 19.0349H18.616C18.1959 19.0349 17.8809 18.6935 17.8809 18.2997V16.9869Z" fill="#C2CDDC"/>
<path d="M21.4516 19.5862H18.6421C17.9332 19.5862 17.3818 19.0086 17.3818 18.3259V17.0656V17.0131C17.3818 16.7243 17.6181 16.488 17.907 16.488H22.213C22.5018 16.488 22.7381 16.7243 22.7381 17.0131V18.3259C22.7119 19.0086 22.1605 19.5862 21.4516 19.5862ZM18.4058 17.512V18.2997C18.4058 18.431 18.5109 18.5097 18.6159 18.5097H21.4516C21.5829 18.5097 21.6616 18.4047 21.6616 18.2997V17.512H18.4058Z" fill="#131313"/>
<path d="M18.616 26.9643H21.4255C21.8456 26.9643 22.1607 27.3056 22.1607 27.6995V29.0123H17.8809V27.6995C17.8809 27.2794 18.2222 26.9643 18.616 26.9643Z" fill="#C2CDDC"/>
<path d="M22.1866 29.5375H17.8806C17.5918 29.5375 17.3555 29.3012 17.3555 29.0123V27.6995C17.3555 26.9906 17.9331 26.4392 18.6158 26.4392H21.4515C22.1604 26.4392 22.7118 27.0169 22.7118 27.6995V29.0123C22.7118 29.3012 22.4755 29.5375 22.1866 29.5375ZM18.4057 28.4872H21.6615V27.6995C21.6615 27.5682 21.5565 27.4895 21.4515 27.4895H18.6158C18.4845 27.4895 18.4057 27.5945 18.4057 27.6995V28.4872Z" fill="#131313"/>
<path d="M18.9834 19.0612H21.0839V26.9643H18.9834V19.0612Z" fill="#F3F3F3"/>
<path d="M21.0836 27.4894H18.9831C18.6943 27.4894 18.458 27.2531 18.458 26.9643V19.0611C18.458 18.7723 18.6943 18.536 18.9831 18.536H21.0836C21.3725 18.536 21.6088 18.7723 21.6088 19.0611V26.9643C21.6088 27.2531 21.3725 27.4894 21.0836 27.4894ZM19.5083 26.4392H20.5585V19.5863H19.5083V26.4392Z" fill="#131313"/>
<path d="M24.1299 16.9869H28.4359V18.2997C28.4359 18.7198 28.0946 19.0349 27.7008 19.0349H24.8651C24.445 19.0349 24.1299 18.6935 24.1299 18.2997V16.9869Z" fill="#C2CDDC"/>
<path d="M27.7005 19.5862H24.8648C24.1559 19.5862 23.6045 19.0086 23.6045 18.3259V17.0656V17.0131C23.6045 16.7243 23.8408 16.488 24.1296 16.488H28.4357C28.7245 16.488 28.9608 16.7243 28.9608 17.0131V18.3259C28.9608 19.0086 28.3832 19.5862 27.7005 19.5862ZM24.6547 17.512V18.2997C24.6547 18.431 24.7598 18.5097 24.8648 18.5097H27.7005C27.8318 18.5097 27.9105 18.4047 27.9105 18.2997V17.512H24.6547Z" fill="#131313"/>
<path d="M24.8651 26.9643H27.7008C28.1209 26.9643 28.4359 27.3056 28.4359 27.6995V29.0123H24.1299V27.6995C24.1299 27.2794 24.445 26.9643 24.8651 26.9643Z" fill="#C2CDDC"/>
<path d="M28.4357 29.5375H24.1296C23.8408 29.5375 23.6045 29.3012 23.6045 29.0123V27.6995C23.6045 26.9906 24.1821 26.4392 24.8648 26.4392H27.7005C28.4094 26.4392 28.9608 27.0169 28.9608 27.6995V29.0123C28.9608 29.3012 28.7245 29.5375 28.4357 29.5375ZM24.6547 28.4872H27.9105V27.6995C27.9105 27.5682 27.8055 27.4895 27.7005 27.4895H24.8648C24.7335 27.4895 24.6547 27.5945 24.6547 27.6995V28.4872Z" fill="#131313"/>
<path d="M25.2324 19.0612H27.3329V26.9643H25.2324V19.0612Z" fill="#F3F3F3"/>
<path d="M27.3327 27.4894H25.2322C24.9433 27.4894 24.707 27.2531 24.707 26.9643V19.0611C24.707 18.7723 24.9433 18.536 25.2322 18.536H27.3327C27.6215 18.536 27.8578 18.7723 27.8578 19.0611V26.9643C27.8578 27.2531 27.6215 27.4894 27.3327 27.4894ZM25.7573 26.4392H26.8075V19.5863H25.7573V26.4392Z" fill="#131313"/>
<path d="M3.51838 29.0123H30.3787C30.7988 29.0123 31.1139 29.3537 31.1139 29.7475V31.7955C31.1139 32.2156 30.7725 32.5307 30.3787 32.5307H3.51838C3.09828 32.5307 2.7832 32.1894 2.7832 31.7955V29.7475C2.7832 29.3537 3.09828 29.0123 3.51838 29.0123Z" fill="#EDF2F8"/>
<path d="M30.4047 33.0558H3.51812C2.8092 33.0558 2.25781 32.4782 2.25781 31.7955V29.7475C2.25781 29.0386 2.83545 28.4872 3.51812 28.4872H30.3784C31.0873 28.4872 31.6387 29.0648 31.6387 29.7475V31.7955C31.665 32.5044 31.0873 33.0558 30.4047 33.0558ZM3.51812 29.5374C3.38684 29.5374 3.30807 29.6425 3.30807 29.7475V31.7955C3.30807 31.9268 3.41309 32.0055 3.51812 32.0055H30.3784C30.5097 32.0055 30.5885 31.9005 30.5885 31.7955V29.7475C30.5885 29.6162 30.4835 29.5374 30.3784 29.5374H3.51812Z" fill="#131313"/>
<path d="M1.26057 31.0603H32.7158C33.1359 31.0603 33.4509 31.4016 33.4509 31.7955V32.4781C33.4509 32.8983 33.1096 33.2133 32.7158 33.2133H1.26057C0.840468 33.2133 0.525391 32.872 0.525391 32.4781V31.7955C0.525391 31.4016 0.866724 31.0603 1.26057 31.0603Z" fill="#EDF2F8"/>
<path d="M32.7417 33.7384H1.26031C0.551385 33.7384 0 33.1608 0 32.4781V31.7955C0 31.0865 0.577641 30.5352 1.26031 30.5352H32.7155C33.4244 30.5352 33.9758 31.1128 33.9758 31.7955V32.4781C34.0021 33.1871 33.4244 33.7384 32.7417 33.7384ZM1.26031 31.5854C1.12903 31.5854 1.05026 31.6904 1.05026 31.7955V32.4781C1.05026 32.6094 1.15528 32.6882 1.26031 32.6882H32.7155C32.8468 32.6882 32.9255 32.5832 32.9255 32.4781V31.7955C32.9255 31.6642 32.8205 31.5854 32.7155 31.5854H1.26031Z" fill="#131313"/>
</g>
<defs>
<clipPath id="clip0_1_1311">
<rect width="34" height="34" fill="white"/>
</clipPath>
</defs>
</svg>
