<svg width="49" height="49" viewBox="0 0 49 49" fill="none" xmlns="http://www.w3.org/2000/svg">
<path d="M20.2159 10.1872C20.2159 7.42734 17.9326 5.18585 15.1211 5.18585C12.3097 5.18585 10.0264 7.43488 10.0264 10.1872C10.0264 12.9396 12.3097 15.1886 15.1211 15.1886C17.9326 15.1886 20.2159 12.9472 20.2159 10.1872Z" fill="white"/>
<path d="M15.1217 2.66003C10.8988 2.66003 7.45361 6.04206 7.45361 10.1876C7.45361 14.3331 10.8911 17.7151 15.1217 17.7151C19.3523 17.7151 22.7898 14.3331 22.7898 10.1876C22.7898 6.04206 19.3446 2.66004 15.1217 2.66003ZM10.0269 10.1876C10.0269 7.42767 12.3103 5.18618 15.1217 5.18618C17.9331 5.18618 20.2165 7.42767 20.2165 10.1876C20.2165 12.9475 17.9331 15.189 15.1217 15.189C12.3103 15.189 10.0269 12.9475 10.0269 10.1876Z" fill="#195083"/>
<path d="M20.2137 34.7352C20.2137 30.7537 21.9939 27.1775 24.8034 24.7192C24.3675 24.3214 23.8567 24.0217 23.2998 23.82C22.2147 23.4524 21.1163 23.1602 20.0389 22.9434L16.3115 32.1355C15.8832 33.2007 14.3489 33.2007 13.9206 32.1355L10.1932 22.9283C9.10814 23.1451 8.00968 23.4373 6.93234 23.8049C5.68793 24.2253 4.73351 25.1698 4.22845 26.331L8.38224 26.331C9.09278 26.331 9.67273 26.8928 9.67273 27.5979C9.67273 28.3029 9.10046 28.8647 8.38224 28.8647L3.82324 28.8647L3.82324 31.1138L5.89342 31.1138C6.60396 31.1138 7.18391 31.6755 7.18391 32.3806C7.18391 33.0857 6.61164 33.6474 5.89342 33.6474L3.82324 33.6474L3.82324 37.1331L20.4345 37.1331C20.304 36.3451 20.2137 35.5515 20.2137 34.7333L20.2137 34.7352Z" fill="#57ABDE"/>
<path d="M35.0529 26.4115C35.1528 26.5906 35.2142 26.8017 35.2142 27.0185L35.2142 34.7327C35.2142 35.4302 34.642 35.9996 33.9237 35.9996L29.6855 35.9996C28.9749 35.9996 28.4027 35.4378 28.4027 34.7327C28.4027 34.0276 28.9749 33.4734 29.6855 33.4734L32.6332 33.4734L32.6332 27.0185C32.6332 26.7942 32.6947 26.5906 32.7946 26.4115C28.6101 26.9582 25.3704 30.4835 25.3704 34.7346C25.3704 39.3684 29.2054 43.1312 33.9237 43.1312C38.6421 43.1312 42.4771 39.3665 42.4771 34.7346C42.4771 30.476 39.2394 26.9525 35.0529 26.4115Z" fill="#FDC114"/>
<path d="M37.1071 28.1667C32.1508 28.1667 28.116 32.1996 28.116 37.1559C28.116 42.1122 32.1508 46.145 37.1071 46.145C42.0634 46.145 46.0982 42.1122 46.0982 37.1559C46.0982 32.1996 42.0634 28.1667 37.1071 28.1667Z" fill="white"/>
<path d="M9.32331 18.3107L14.3119 18.3107L14.3119 30.6289L11.6643 30.6289L11.6643 20.6598L9.32129 20.6598L9.32129 18.3107L9.32331 18.3107Z" fill="#195083"/>
<path d="M22.0578 23.1159C22.3622 22.6743 22.5316 22.2489 22.5316 21.8416C22.5316 21.4343 22.3945 21.0874 22.1304 20.8072C21.8662 20.5269 21.5214 20.3978 21.0959 20.3978C20.3176 20.3978 19.5877 20.9503 18.89 22.0573L16.6841 20.7507C17.2608 19.8615 17.8959 19.1779 18.5855 18.7303C19.2751 18.2725 20.1503 18.0406 21.2169 18.0406C22.2836 18.0406 23.2132 18.3774 24.0157 19.0509C24.8182 19.7243 25.2276 20.6378 25.2276 21.8093C25.2276 22.4425 25.0662 23.0514 24.7376 23.6301C24.4089 24.2149 23.8161 24.9529 22.941 25.8522L20.7189 28.161L25.5724 28.161L25.5724 30.623L16.8857 30.623L16.8857 28.5784L20.5031 24.8823C21.2411 24.1443 21.7533 23.5595 22.0598 23.1179L22.0578 23.1159Z" fill="#195083"/>
<path d="M37.1073 43.4459C33.6431 43.4459 30.8181 40.631 30.8181 37.1587C30.8181 33.6865 33.633 30.8716 37.1073 30.8716C40.5815 30.8716 43.3964 33.6865 43.3964 37.1587C43.3964 40.6148 40.5654 43.4459 37.1073 43.4459Z" fill="#FDC114"/>
<path d="M32.101 6.62866L27.7376 6.62866L27.7376 8.16113C27.7376 8.9072 27.1367 9.51615 26.3825 9.51615C25.6284 9.51615 25.0275 8.91526 25.0275 8.16113L25.0275 6.62866L9.86821 6.62866L9.86821 8.16113C9.86821 8.9072 9.26733 9.51615 8.51319 9.51615C7.75906 9.51615 7.15815 8.91526 7.15815 8.16113L7.15815 6.62866L2.80273 6.62866L2.80273 11.3208L32.095 11.3208L32.095 6.62866L32.1031 6.62866L32.101 6.62866Z" fill="#FDC114"/>
<path d="M37.1073 25.4649C36.3209 25.4649 35.5426 25.5456 34.8046 25.6968L34.8046 5.27266C34.8046 4.5266 34.2037 3.91764 33.4495 3.91764L27.723 3.91764L27.723 1.50401C27.723 0.757942 27.1221 0.148989 26.3679 0.148989C25.6138 0.148989 25.0129 0.749877 25.0129 1.50401L25.0129 3.90958L9.87782 3.90957L9.87782 1.50401C9.87782 0.757941 9.27691 0.148988 8.52278 0.148988C7.76864 0.148988 7.16776 0.749875 7.16776 1.50401L7.16776 3.90957L1.44925 3.90957C0.703185 3.91764 0.0942379 4.51853 0.0942378 5.27266L0.0942352 35.9945C0.0942352 36.7406 0.695117 37.3496 1.44925 37.3496L25.4142 37.3496C25.519 43.7012 30.7153 48.8491 37.1012 48.8491C43.4872 48.8491 48.7964 43.6044 48.7964 37.156C48.7964 30.7075 43.5577 25.4629 37.1093 25.4629L37.1073 25.4649ZM37.1073 46.1471C32.151 46.1471 28.1162 42.1143 28.1162 37.158C28.1162 32.2017 32.151 28.1689 37.1073 28.1689C42.0636 28.1689 46.0984 32.2017 46.0984 37.158C46.0984 42.1143 42.0636 46.1471 37.1073 46.1471ZM2.80225 6.62768L7.16574 6.62768L7.16574 8.16015C7.16574 8.90621 7.76663 9.51517 8.52076 9.51517C9.27489 9.51517 9.88385 8.91428 9.88385 8.16015L9.88385 6.62768L25.0351 6.62768L25.0351 8.16015C25.0351 8.90622 25.636 9.51517 26.3901 9.51517C27.1442 9.51517 27.7451 8.91428 27.7451 8.16015L27.7451 6.62768L32.1086 6.62768L32.1086 11.3198L2.80023 11.3198L2.80023 6.62768L2.80225 6.62768ZM2.80225 34.6315L2.80225 14.0218L32.0945 14.0218L32.0945 26.6042C28.8864 28.1366 26.4808 31.0786 25.6945 34.6395L2.80427 34.6395L2.80427 34.6315L2.80225 34.6315Z" fill="#195083"/>
<path d="M40.4507 35.8012L38.4544 35.8012L38.4544 31.23C38.4544 30.484 37.8536 29.875 37.0994 29.875C36.3453 29.875 35.7444 30.4759 35.7444 31.23L35.7444 37.1562C35.7444 37.9023 36.3453 38.5112 37.0994 38.5112L40.4446 38.5112C41.1907 38.5112 41.7996 37.9104 41.7996 37.1562C41.8077 36.4102 41.1988 35.8012 40.4527 35.8012L40.4507 35.8012Z" fill="#195083"/>
<path d="M32.0945 26.6036L32.0945 14.0294L2.80225 14.0294L2.80224 34.6471L25.6844 34.6471C26.4708 31.078 28.8763 28.1361 32.0925 26.6036L32.0945 26.6036Z" fill="white"/>
<path d="M5.51343 16.7321L5.51343 22.6018L8.52188 22.6018C9.26795 22.6018 9.87692 23.2027 9.87692 23.9568C9.87692 24.711 9.27601 25.3119 8.52188 25.3119L5.51343 25.3119L5.51343 27.7174L5.77756 27.7174C6.52363 27.7174 7.1326 28.3183 7.1326 29.0724C7.1326 29.8266 6.5317 30.4275 5.77756 30.4275L5.51343 30.4275L5.51343 31.9438L23.6731 31.9438C24.7882 29.0805 26.7764 26.6427 29.3836 24.9913L29.3836 16.7159L5.51343 16.7159L5.51343 16.7321Z" fill="#57ABDE"/>
<path d="M9.32446 20.6454L11.6574 20.6454L11.6574 30.6286L14.305 30.6286L14.305 18.3104L9.32446 18.3104L9.32446 20.6454Z" fill="#195083"/>
<path d="M20.7213 28.1668L22.9433 25.858C23.8185 24.9607 25.238 23.4605 25.2138 21.801C25.2622 18.8409 22.407 17.9678 21.2032 18.0323C20.1365 18.0323 18.3641 18.113 16.6804 20.7424L18.8863 22.049C19.576 20.9501 20.314 20.3895 21.0923 20.3895C22.2074 20.3814 22.5764 21.3675 22.536 21.8333C22.536 22.2426 22.4877 22.8838 20.5156 24.88L16.8982 28.5761L16.8982 30.6207L25.5848 30.6207L25.5848 28.1587L20.7253 28.1668L20.7213 28.1668Z" fill="#195083"/>
</svg>
