<svg width="34" height="34" viewBox="0 0 34 34" fill="none" xmlns="http://www.w3.org/2000/svg">
<path d="M17 15.9375C12.7731 15.9375 8.71935 17.6166 5.73049 20.6055C2.74162 23.5943 1.0625 27.6481 1.0625 31.875C1.0625 32.1568 1.17444 32.427 1.3737 32.6263C1.57296 32.8256 1.84321 32.9375 2.125 32.9375H31.875C32.1568 32.9375 32.427 32.8256 32.6263 32.6263C32.8256 32.427 32.9375 32.1568 32.9375 31.875C32.9375 27.6481 31.2584 23.5943 28.2695 20.6055C25.2807 17.6166 21.2269 15.9375 17 15.9375Z" fill="#F16145"/>
<path d="M17 18.0625C21.6944 18.0625 25.5 14.2569 25.5 9.5625C25.5 4.86808 21.6944 1.0625 17 1.0625C12.3056 1.0625 8.5 4.86808 8.5 9.5625C8.5 14.2569 12.3056 18.0625 17 18.0625Z" fill="#F68F71"/>
</svg>
